<svg width="105" height="24" viewBox="0 0 105 24" fill="none" xmlns="http://www.w3.org/2000/svg">
<path d="M18.3531 3.51264C18.9386 2.9272 19.8877 2.9272 20.4732 3.51264C21.0586 4.09808 21.0586 5.04727 20.4732 5.63271L14.113 11.9929L11.9929 9.87284L18.3531 3.51264Z" fill="#2C4160"/>
<path d="M11.9929 9.87284L9.87285 11.9929L3.51264 5.63271C2.9272 5.04727 2.9272 4.09808 3.51264 3.51264C4.09808 2.9272 5.04727 2.9272 5.63271 3.51264L11.9929 9.87284Z" fill="#2C4160"/>
<path d="M1.49911 13.492C0.671176 13.492 0 12.8208 0 11.9929C0 11.165 0.671176 10.4938 1.49911 10.4938H22.4867C23.3146 10.4938 23.9858 11.165 23.9858 11.9929C23.9858 12.8208 23.3146 13.492 22.4867 13.492L3.12238 13.492L1.49911 13.492Z" fill="#2C4160"/>
<path d="M13.492 13.0825H10.4938V1.49912C10.4938 0.671178 11.165 0 11.9929 0C12.8208 0 13.492 0.671176 13.492 1.49911V13.0825Z" fill="#2C4160"/>
<path fill-rule="evenodd" clip-rule="evenodd" d="M22.091 18.4627C22.6645 17.5676 21.9501 16.4903 20.8871 16.4903H20.6501C20.1144 16.4903 19.6274 16.782 19.3163 17.218C18.9872 17.6794 18.613 18.1115 18.1972 18.5075C16.5773 20.0502 14.4408 20.9341 12.2045 20.9867C9.96823 21.0393 7.79253 20.2569 6.1019 18.7921C5.55976 18.3224 5.07997 17.7933 4.66951 17.218C4.35842 16.782 3.87143 16.4903 3.33579 16.4903H3.09876C2.03569 16.4903 1.32133 17.5676 1.89481 18.4627C2.50997 19.4229 3.26377 20.298 4.13965 21.0569C6.39341 23.0096 9.29382 24.0527 12.275 23.9825C15.2562 23.9124 18.1044 22.7341 20.2638 20.6775C20.9647 20.01 21.5767 19.2656 22.091 18.4627Z" fill="#2C4160"/>
<path d="M37.9536 19.7523C36.9302 19.7523 36.0267 19.5045 35.2432 19.0088C34.4756 18.5131 33.876 17.8015 33.4442 16.874C33.0125 15.9466 32.7966 14.8512 32.7966 13.588C32.7966 12.3247 33.0125 11.2374 33.4442 10.3259C33.876 9.41444 34.4756 8.71085 35.2432 8.21514C36.0267 7.71944 36.9302 7.47158 37.9536 7.47158C38.881 7.47158 39.6965 7.69545 40.4001 8.14319C41.1197 8.59092 41.6074 9.17458 41.8633 9.89415H41.5994V4.20951C41.5994 3.60187 41.7513 3.14614 42.0551 2.84232C42.359 2.52251 42.8067 2.3626 43.3983 2.3626C43.974 2.3626 44.4217 2.52251 44.7416 2.84232C45.0614 3.14614 45.2213 3.60187 45.2213 4.20951V17.8574C45.2213 18.4491 45.0614 18.9048 44.7416 19.2246C44.4377 19.5445 43.998 19.7044 43.4223 19.7044C42.8467 19.7044 42.3989 19.5445 42.0791 19.2246C41.7753 18.9048 41.6234 18.4491 41.6234 17.8574V16.2264L41.8872 17.1619C41.6634 17.9454 41.1837 18.577 40.4481 19.0567C39.7285 19.5205 38.897 19.7523 37.9536 19.7523ZM39.0329 17.0419C39.5606 17.0419 40.0163 16.914 40.4001 16.6582C40.7839 16.4023 41.0877 16.0265 41.3116 15.5308C41.5355 15.0191 41.6474 14.3715 41.6474 13.588C41.6474 12.4207 41.4075 11.5652 40.9278 11.0215C40.4481 10.4618 39.8165 10.182 39.0329 10.182C38.5212 10.182 38.0655 10.3019 37.6657 10.5418C37.282 10.7816 36.9781 11.1574 36.7543 11.6691C36.5464 12.1648 36.4425 12.8044 36.4425 13.588C36.4425 14.7553 36.6823 15.6268 37.162 16.2024C37.6418 16.7621 38.2654 17.0419 39.0329 17.0419Z" fill="#2C4160"/>
<path d="M48.5397 19.4885C48.188 19.4885 47.8921 19.4005 47.6523 19.2246C47.4124 19.0328 47.2525 18.7929 47.1726 18.5051C47.0926 18.2172 47.0926 17.9054 47.1726 17.5696C47.2685 17.2338 47.4524 16.922 47.7242 16.6342L53.6008 9.58234V10.4218H48.3958C47.9641 10.4218 47.6283 10.3019 47.3884 10.0621C47.1486 9.8222 47.0286 9.49439 47.0286 9.07863C47.0286 8.6309 47.1486 8.2951 47.3884 8.07123C47.6283 7.83137 47.9641 7.71144 48.3958 7.71144H55.3277C55.7595 7.71144 56.1033 7.80739 56.3591 7.99927C56.615 8.19116 56.7829 8.43102 56.8628 8.71885C56.9588 8.99069 56.9668 9.29451 56.8868 9.63031C56.8229 9.95012 56.655 10.2539 56.3831 10.5418L50.3627 17.7375V16.8021H55.9274C56.8388 16.8021 57.2946 17.2498 57.2946 18.1453C57.2946 18.577 57.1746 18.9128 56.9348 19.1527C56.6949 19.3766 56.3591 19.4885 55.9274 19.4885H48.5397Z" fill="#2C4160"/>
<path d="M60.8797 19.6804C60.2881 19.6804 59.8323 19.5125 59.5125 19.1767C59.2087 18.8249 59.0568 18.3372 59.0568 17.7135V9.51038C59.0568 8.87076 59.2087 8.38305 59.5125 8.04724C59.8323 7.69545 60.2881 7.51956 60.8797 7.51956C61.4554 7.51956 61.8951 7.69545 62.1989 8.04724C62.5187 8.38305 62.6786 8.87076 62.6786 9.51038V17.7135C62.6786 18.3372 62.5267 18.8249 62.2229 19.1767C61.9191 19.5125 61.4714 19.6804 60.8797 19.6804ZM60.8797 5.55272C60.2081 5.55272 59.6884 5.40081 59.3206 5.09699C58.9688 4.77718 58.7929 4.32944 58.7929 3.75378C58.7929 3.16213 58.9688 2.7144 59.3206 2.41058C59.6884 2.09076 60.2081 1.93086 60.8797 1.93086C61.5513 1.93086 62.063 2.09076 62.4148 2.41058C62.7666 2.7144 62.9425 3.16213 62.9425 3.75378C62.9425 4.32944 62.7666 4.77718 62.4148 5.09699C62.063 5.40081 61.5513 5.55272 60.8797 5.55272Z" fill="#2C4160"/>
<path d="M69.4565 19.7523C68.593 19.7523 67.8175 19.5844 67.1299 19.2486C66.4423 18.9128 65.9066 18.4571 65.5228 17.8814C65.1391 17.3058 64.9472 16.6582 64.9472 15.9386C64.9472 15.0751 65.171 14.3955 65.6188 13.8998C66.0665 13.3881 66.7941 13.0283 67.8015 12.8204C68.8089 12.5966 70.1441 12.4846 71.8071 12.4846H73.0784V14.3555H71.8311C71.0156 14.3555 70.352 14.4035 69.8403 14.4994C69.3446 14.5794 68.9848 14.7233 68.7609 14.9312C68.553 15.1391 68.4491 15.4269 68.4491 15.7947C68.4491 16.2424 68.601 16.6102 68.9048 16.898C69.2246 17.1858 69.6804 17.3298 70.272 17.3298C70.7358 17.3298 71.1435 17.2258 71.4953 17.0179C71.8631 16.7941 72.1509 16.4982 72.3588 16.1305C72.5667 15.7467 72.6706 15.3149 72.6706 14.8352V12.0769C72.6706 11.3733 72.5107 10.8776 72.1909 10.5897C71.8711 10.2859 71.3274 10.134 70.5599 10.134C70.1281 10.134 69.6564 10.19 69.1447 10.3019C68.649 10.3979 68.0973 10.5658 67.4897 10.8056C67.1379 10.9655 66.8261 11.0055 66.5542 10.9255C66.2824 10.8296 66.0745 10.6697 65.9306 10.4458C65.7867 10.206 65.7147 9.95012 65.7147 9.67828C65.7147 9.39045 65.7947 9.11861 65.9546 8.86276C66.1145 8.59092 66.3783 8.39104 66.7461 8.26312C67.4977 7.9593 68.2013 7.75142 68.8569 7.63949C69.5285 7.52755 70.1441 7.47158 70.7038 7.47158C71.9351 7.47158 72.9425 7.65548 73.726 8.02326C74.5255 8.37505 75.1252 8.92673 75.5249 9.67828C75.9247 10.4138 76.1246 11.3653 76.1246 12.5326V17.8574C76.1246 18.4491 75.9807 18.9048 75.6928 19.2246C75.405 19.5445 74.9892 19.7044 74.4456 19.7044C73.9019 19.7044 73.4781 19.5445 73.1743 19.2246C72.8865 18.9048 72.7426 18.4491 72.7426 17.8574V16.97L72.9105 17.1139C72.8145 17.6576 72.6067 18.1293 72.2868 18.529C71.983 18.9128 71.5912 19.2166 71.1115 19.4405C70.6318 19.6484 70.0801 19.7523 69.4565 19.7523Z" fill="#2C4160"/>
<path d="M83.5516 19.7523C82.1284 19.7523 81.065 19.3606 80.3615 18.577C79.6579 17.7775 79.3061 16.5942 79.3061 15.0271V4.20951C79.3061 3.60187 79.458 3.14614 79.7618 2.84232C80.0816 2.52251 80.5373 2.3626 81.129 2.3626C81.7047 2.3626 82.1444 2.52251 82.4482 2.84232C82.768 3.14614 82.9279 3.60187 82.9279 4.20951V14.8832C82.9279 15.5388 83.0638 16.0265 83.3357 16.3463C83.6235 16.6502 83.9993 16.8021 84.463 16.8021C84.5909 16.8021 84.7109 16.7941 84.8228 16.7781C84.9347 16.7621 85.0547 16.7541 85.1826 16.7541C85.4384 16.7221 85.6143 16.8021 85.7103 16.994C85.8222 17.1699 85.8782 17.5296 85.8782 18.0733C85.8782 18.553 85.7822 18.9208 85.5904 19.1767C85.3985 19.4165 85.1026 19.5764 84.7029 19.6564C84.543 19.6724 84.3591 19.6884 84.1512 19.7044C83.9433 19.7363 83.7434 19.7523 83.5516 19.7523ZM79.1622 13.8278C78.8104 14.0357 78.4826 14.1237 78.1787 14.0917C77.8749 14.0437 77.6191 13.9238 77.4112 13.7319C77.2033 13.524 77.0674 13.2841 77.0034 13.0123C76.9235 12.7245 76.9475 12.4446 77.0754 12.1728C77.1873 11.885 77.4192 11.6371 77.771 11.4292L83.6235 8.02326C83.9753 7.81538 84.3031 7.73543 84.6069 7.7834C84.9108 7.81538 85.1666 7.93531 85.3745 8.14319C85.5824 8.33507 85.7183 8.57493 85.7822 8.86276C85.8462 9.1346 85.8222 9.41444 85.7103 9.70227C85.5984 9.9741 85.3665 10.214 85.0147 10.4218L79.1622 13.8278Z" fill="#2C4160"/>
<path d="M91.2752 19.7523C90.4117 19.7523 89.6362 19.5844 88.9486 19.2486C88.261 18.9128 87.7253 18.4571 87.3415 17.8814C86.9577 17.3058 86.7658 16.6582 86.7658 15.9386C86.7658 15.0751 86.9897 14.3955 87.4375 13.8998C87.8852 13.3881 88.6128 13.0283 89.6202 12.8204C90.6276 12.5966 91.9628 12.4846 93.6258 12.4846H94.897V14.3555H93.6498C92.8343 14.3555 92.1707 14.4035 91.659 14.4994C91.1633 14.5794 90.8035 14.7233 90.5796 14.9312C90.3717 15.1391 90.2678 15.4269 90.2678 15.7947C90.2678 16.2424 90.4197 16.6102 90.7235 16.898C91.0433 17.1858 91.499 17.3298 92.0907 17.3298C92.5544 17.3298 92.9622 17.2258 93.314 17.0179C93.6818 16.7941 93.9696 16.4982 94.1775 16.1305C94.3854 15.7467 94.4893 15.3149 94.4893 14.8352V12.0769C94.4893 11.3733 94.3294 10.8776 94.0096 10.5897C93.6898 10.2859 93.1461 10.134 92.3785 10.134C91.9468 10.134 91.4751 10.19 90.9634 10.3019C90.4677 10.3979 89.916 10.5658 89.3083 10.8056C88.9566 10.9655 88.6447 11.0055 88.3729 10.9255C88.1011 10.8296 87.8932 10.6697 87.7493 10.4458C87.6054 10.206 87.5334 9.95012 87.5334 9.67828C87.5334 9.39045 87.6133 9.11861 87.7733 8.86276C87.9332 8.59092 88.197 8.39104 88.5648 8.26312C89.3163 7.9593 90.0199 7.75142 90.6755 7.63949C91.3471 7.52755 91.9628 7.47158 92.5224 7.47158C93.7537 7.47158 94.7611 7.65548 95.5447 8.02326C96.3442 8.37505 96.9438 8.92673 97.3436 9.67828C97.7434 10.4138 97.9432 11.3653 97.9432 12.5326V17.8574C97.9432 18.4491 97.7993 18.9048 97.5115 19.2246C97.2237 19.5445 96.8079 19.7044 96.2642 19.7044C95.7206 19.7044 95.2968 19.5445 94.993 19.2246C94.7052 18.9048 94.5612 18.4491 94.5612 17.8574V16.97L94.7291 17.1139C94.6332 17.6576 94.4253 18.1293 94.1055 18.529C93.8017 18.9128 93.4099 19.2166 92.9302 19.4405C92.4505 19.6484 91.8988 19.7523 91.2752 19.7523Z" fill="#2C4160"/>
<path d="M99.1099 23.9978C98.6782 24.0138 98.3344 23.9419 98.0785 23.7819C97.8227 23.622 97.6468 23.4142 97.5508 23.1583C97.4549 22.9185 97.4309 22.6706 97.4789 22.4148C97.5109 22.1589 97.6148 21.935 97.7907 21.7432C97.9666 21.5513 98.2065 21.4393 98.5103 21.4074C99.1339 21.3594 99.5816 21.1835 99.8535 20.8797C100.141 20.5918 100.285 20.1441 100.285 19.5365V9.34248C100.285 8.75083 100.445 8.30309 100.765 7.99927C101.085 7.67946 101.532 7.51956 102.108 7.51956C102.684 7.51956 103.124 7.67946 103.427 7.99927C103.747 8.30309 103.907 8.75083 103.907 9.34248V19.2007C103.907 20.256 103.731 21.1275 103.379 21.8151C103.044 22.5027 102.524 23.0224 101.82 23.3742C101.117 23.742 100.213 23.9498 99.1099 23.9978ZM102.084 5.55272C101.429 5.55272 100.917 5.40081 100.549 5.09699C100.197 4.77718 100.021 4.32944 100.021 3.75378C100.021 3.16213 100.197 2.7144 100.549 2.41058C100.917 2.09076 101.429 1.93086 102.084 1.93086C102.756 1.93086 103.267 2.09076 103.619 2.41058C103.971 2.7144 104.147 3.16213 104.147 3.75378C104.147 4.32944 103.971 4.77718 103.619 5.09699C103.267 5.40081 102.756 5.55272 102.084 5.55272Z" fill="#2C4160"/>
<path d="M18.3531 3.51264C18.9386 2.9272 19.8877 2.9272 20.4732 3.51264C21.0586 4.09808 21.0586 5.04727 20.4732 5.63271L14.113 11.9929L11.9929 9.87284L18.3531 3.51264Z" fill="#2C4160"/>
<path d="M11.9929 9.87284L9.87285 11.9929L3.51264 5.63271C2.9272 5.04727 2.9272 4.09808 3.51264 3.51264C4.09808 2.9272 5.04727 2.9272 5.63271 3.51264L11.9929 9.87284Z" fill="#2C4160"/>
<path d="M1.49911 13.492C0.671176 13.492 0 12.8208 0 11.9929C0 11.165 0.671176 10.4938 1.49911 10.4938H22.4867C23.3146 10.4938 23.9858 11.165 23.9858 11.9929C23.9858 12.8208 23.3146 13.492 22.4867 13.492L3.12238 13.492L1.49911 13.492Z" fill="#2C4160"/>
<path d="M13.492 13.0825H10.4938V1.49912C10.4938 0.671178 11.165 0 11.9929 0C12.8208 0 13.492 0.671176 13.492 1.49911V13.0825Z" fill="#2C4160"/>
<path fill-rule="evenodd" clip-rule="evenodd" d="M22.091 18.4627C22.6645 17.5676 21.9501 16.4903 20.8871 16.4903H20.6501C20.1144 16.4903 19.6274 16.782 19.3163 17.218C18.9872 17.6794 18.613 18.1115 18.1972 18.5075C16.5773 20.0502 14.4408 20.9341 12.2045 20.9867C9.96823 21.0393 7.79253 20.2569 6.1019 18.7921C5.55976 18.3224 5.07997 17.7933 4.66951 17.218C4.35842 16.782 3.87143 16.4903 3.33579 16.4903H3.09876C2.03569 16.4903 1.32133 17.5676 1.89481 18.4627C2.50997 19.4229 3.26377 20.298 4.13965 21.0569C6.39341 23.0096 9.29382 24.0527 12.275 23.9825C15.2562 23.9124 18.1044 22.7341 20.2638 20.6775C20.9647 20.01 21.5767 19.2656 22.091 18.4627Z" fill="#2C4160"/>
</svg>
