<svg width="16" height="16" viewBox="0 0 16 16" fill="none" xmlns="http://www.w3.org/2000/svg">
<path d="M5.60002 1.6001C5.15752 1.6001 4.80002 1.9576 4.80002 2.4001V3.2001H4.00002C3.11752 3.2001 2.40002 3.9176 2.40002 4.8001V6.0001H13.6V4.8001C13.6 3.9176 12.8825 3.2001 12 3.2001H11.2V2.4001C11.2 1.9576 10.8425 1.6001 10.4 1.6001C9.95752 1.6001 9.60002 1.9576 9.60002 2.4001V3.2001H6.40002V2.4001C6.40002 1.9576 6.04252 1.6001 5.60002 1.6001ZM2.40002 7.2001V12.0001C2.40002 12.8826 3.11752 13.6001 4.00002 13.6001H12C12.8825 13.6001 13.6 12.8826 13.6 12.0001V7.2001H2.40002Z" fill="#2C4160"/>
</svg>
