<svg width="16" height="16" viewBox="0 0 16 16" fill="none" xmlns="http://www.w3.org/2000/svg">
<path d="M13.9875 5.46875C13 3.1375 10.6906 1.5 8 1.5C7.30938 1.5 6.64375 1.60938 6.01875 1.80625C6.00625 1.86875 6 1.93438 6 2V4.29375C6 4.68437 6.31563 5 6.70625 5C6.89375 5 7.075 4.925 7.20625 4.79375L7.70625 4.29375C7.89375 4.10625 8.14688 4 8.4125 4H8.58438C9.475 4 9.92188 5.07812 9.29062 5.70625C9.10312 5.89375 8.85 6 8.58438 6H6.6625C6.39688 6 6.14375 6.10625 5.95625 6.29375L5.29063 6.95938C5.10313 7.14688 4.99687 7.4 4.99687 7.66562V9C4.99687 9.55313 5.44375 10 5.99688 10H6.99687C7.55 10 7.99687 10.4469 7.99687 11V12C7.99687 12.5531 8.44375 13 8.99688 13H9.08125C9.34688 13 9.6 12.8938 9.7875 12.7063L10.7031 11.7906C10.8906 11.6031 10.9969 11.35 10.9969 11.0844V10.5C10.9969 10.225 11.2219 10 11.4969 10C11.7719 10 11.9969 9.775 11.9969 9.5V8.41562C11.9969 8.15 11.8906 7.89688 11.7031 7.70938L11.2031 7.20938C11.0719 7.07813 10.9969 6.89688 10.9969 6.70938C10.9969 6.31875 11.3125 6.00313 11.7031 6.00313H13.1094C13.4969 6.00313 13.8188 5.78125 13.9844 5.47188L13.9875 5.46875ZM0 8C0 3.58125 3.58125 0 8 0C12.4187 0 16 3.58125 16 8C16 12.4187 12.4187 16 8 16C3.58125 16 0 12.4187 0 8Z" fill="#3279E4"/>
</svg>
