<svg width="16" height="16" viewBox="0 0 16 16" fill="none" xmlns="http://www.w3.org/2000/svg">
<path d="M10.5225 11.2001C10.705 10.6426 11.07 10.1376 11.4825 9.7026C12.3 8.8426 12.8 7.6801 12.8 6.4001C12.8 3.7501 10.65 1.6001 7.99995 1.6001C5.34995 1.6001 3.19995 3.7501 3.19995 6.4001C3.19995 7.6801 3.69995 8.8426 4.51745 9.7026C4.92995 10.1376 5.29745 10.6426 5.47745 11.2001H10.52H10.5225ZM10.4 12.4001H5.59995V12.8001C5.59995 13.9051 6.49495 14.8001 7.59995 14.8001H8.39995C9.50495 14.8001 10.4 13.9051 10.4 12.8001V12.4001ZM7.79995 4.4001C6.80495 4.4001 5.99995 5.2051 5.99995 6.2001C5.99995 6.5326 5.73245 6.8001 5.39995 6.8001C5.06745 6.8001 4.79995 6.5326 4.79995 6.2001C4.79995 4.5426 6.14245 3.2001 7.79995 3.2001C8.13245 3.2001 8.39995 3.4676 8.39995 3.8001C8.39995 4.1326 8.13245 4.4001 7.79995 4.4001Z" fill="#2C4160"/>
</svg>
