<svg width="9" height="16" viewBox="0 0 9 16" fill="none" xmlns="http://www.w3.org/2000/svg">
<path d="M5.5 8.8875C7.50312 8.43437 9 6.64063 9 4.5C9 2.01562 6.98438 0 4.5 0C2.01562 0 0 2.01562 0 4.5C0 6.64063 1.49688 8.43437 3.5 8.8875V15C3.5 15.5531 3.94687 16 4.5 16C5.05312 16 5.5 15.5531 5.5 15V8.8875ZM4.75 3C3.78437 3 3 3.78438 3 4.75C3 5.16563 2.66562 5.5 2.25 5.5C1.83437 5.5 1.5 5.16563 1.5 4.75C1.5 2.95625 2.95625 1.5 4.75 1.5C5.16562 1.5 5.5 1.83438 5.5 2.25C5.5 2.66563 5.16562 3 4.75 3Z" fill="#3279E4"/>
</svg>
